<?xml version="1.0" standalone="no"?>
<!DOCTYPE svg PUBLIC "-//W3C//DTD SVG 20010904//EN"
 "http://www.w3.org/TR/2001/REC-SVG-20010904/DTD/svg10.dtd">
<svg version="1.0" xmlns="http://www.w3.org/2000/svg"
 width="794.000000pt" height="795.000000pt" viewBox="0 0 794.000000 795.000000"
 preserveAspectRatio="xMidYMid meet">

<g transform="translate(0.000000,795.000000) scale(0.100000,-0.100000)"
fill="#000000" stroke="none">
<path d="M5210 7167 c0 -7 6 -19 13 -26 27 -27 6 -426 -28 -526 -7 -22 -22
-72 -34 -111 -26 -88 -46 -108 -110 -108 -81 0 -108 18 -168 112 -38 59 -63
87 -86 97 -41 17 -58 36 -91 103 -66 131 -239 190 -371 125 l-55 -27 -48 18
c-130 49 -171 56 -347 55 -195 0 -223 -8 -309 -78 -28 -23 -82 -59 -121 -80
-38 -20 -118 -63 -178 -95 -76 -41 -108 -54 -111 -44 -3 7 -14 54 -25 103 -22
99 -32 339 -18 413 11 52 -4 56 -20 4 -40 -129 -77 -406 -71 -544 3 -80 11
-117 57 -260 30 -92 52 -171 48 -174 -3 -4 -17 -4 -30 0 -29 7 -72 104 -108
241 -20 76 -23 115 -24 250 0 88 3 187 7 220 7 51 6 55 -3 25 -6 -19 -17 -42
-25 -51 -40 -44 -52 -359 -20 -492 11 -46 15 -81 10 -86 -5 -4 -31 -16 -57
-25 -58 -22 -89 -64 -112 -151 -18 -70 -19 -128 -4 -158 6 -12 30 -38 52 -58
l40 -35 -36 -73 c-59 -118 -45 -181 39 -181 50 0 56 -16 45 -111 -15 -124 -37
-187 -81 -231 -21 -21 -46 -38 -56 -38 -11 0 -28 -8 -39 -17 -19 -15 -18 -15
18 -10 20 3 37 3 37 -1 0 -4 -30 -32 -66 -62 -151 -127 -162 -185 -49 -250
117 -67 129 -88 100 -170 -20 -56 -19 -153 1 -192 23 -44 21 -89 -4 -125 -41
-58 -45 -81 -17 -109 29 -29 31 -41 8 -47 -16 -3 -16 -5 2 -11 61 -23 63 -25
75 -78 7 -29 21 -73 32 -97 17 -41 20 -43 36 -28 32 29 64 26 80 -8 23 -48 42
-65 91 -79 54 -15 66 -44 29 -70 -30 -21 -45 -20 -92 5 -67 36 -60 15 13 -35
39 -27 71 -52 71 -56 0 -11 -100 -75 -156 -100 -208 -95 -288 -129 -344 -147
-278 -89 -370 -122 -555 -198 -115 -47 -228 -94 -250 -104 -22 -10 -66 -29
-98 -42 -110 -44 -168 -118 -188 -238 -13 -75 -69 -460 -80 -541 -4 -36 -8
-96 -8 -134 -1 -38 -6 -97 -12 -130 -6 -37 -7 -81 -2 -111 l8 -49 150 -63 c83
-35 242 -101 355 -147 113 -47 300 -124 415 -172 116 -47 244 -100 285 -116
41 -16 89 -36 105 -43 36 -17 71 -31 240 -100 72 -29 144 -58 160 -65 17 -7
44 -18 60 -25 55 -24 209 -87 345 -142 74 -30 153 -63 175 -73 22 -10 114 -48
205 -85 91 -37 178 -73 194 -81 54 -26 96 -17 287 62 101 42 217 89 257 105
39 16 91 37 115 48 23 10 143 60 267 111 124 51 239 98 255 105 25 11 121 50
230 95 11 4 36 15 55 23 19 9 58 24 85 35 75 29 417 171 440 182 11 5 88 37
170 70 137 55 193 79 280 116 17 7 104 42 195 79 91 37 174 76 186 86 19 17
22 35 28 160 6 133 4 159 -39 457 -24 174 -47 332 -49 350 -11 76 -72 164
-140 199 -33 17 -237 102 -496 207 -85 35 -243 93 -350 129 -240 81 -310 110
-459 188 -64 34 -126 67 -138 73 -34 17 -28 30 32 70 62 41 73 62 20 40 -48
-20 -88 -18 -119 7 -44 35 -35 56 31 69 57 12 84 32 126 94 14 21 26 26 57 26
46 0 61 18 80 90 14 53 25 69 60 82 23 9 24 10 8 22 -25 18 -22 34 7 48 34 15
31 37 -10 89 -40 51 -42 65 -16 111 36 62 36 98 0 179 -33 73 -33 76 -39 264
-3 105 -2 194 2 199 10 13 73 -29 112 -76 38 -44 61 -120 45 -150 -5 -9 -29
-26 -53 -36 -40 -18 -95 -76 -83 -88 8 -8 85 39 134 81 52 44 68 91 47 138
-18 42 -29 55 -91 103 -29 23 -50 44 -47 46 2 3 22 0 44 -5 27 -8 43 -8 50 -1
7 7 -8 16 -47 28 -61 19 -123 68 -149 118 -23 44 -65 269 -53 284 5 6 25 15
43 18 43 8 86 42 86 66 0 11 -12 56 -26 101 l-26 81 25 27 c14 14 30 37 37 50
18 35 16 159 -3 202 -14 32 -77 100 -136 147 -25 19 -25 19 -11 93 23 120 13
434 -16 519 -14 40 -21 -26 -22 -184 0 -149 -3 -184 -25 -273 -26 -104 -86
-259 -99 -252 -3 2 -19 -7 -34 -21 -32 -29 -33 -37 22 120 20 58 47 147 60
200 l25 95 -16 175 c-9 96 -21 200 -26 230 -21 111 -42 195 -50 205 -5 5 -9
17 -9 27 0 10 -4 18 -10 18 -5 0 -10 -6 -10 -13z m-732 -811 c69 9 115 -1 154
-34 31 -26 36 -27 147 -27 117 0 141 -5 141 -30 0 -7 10 -17 22 -21 21 -6 21
-7 2 -21 -14 -10 -35 -12 -79 -8 -53 6 -70 2 -150 -30 -49 -20 -100 -41 -111
-46 -24 -12 -58 -9 -56 5 1 11 112 59 213 92 61 20 82 23 104 14 30 -11 45 -6
28 11 -21 21 -113 11 -188 -21 -23 -9 -151 -56 -176 -64 -18 -5 -18 0 11 -153
11 -53 10 -64 -4 -84 -12 -17 -16 -46 -16 -106 0 -46 -4 -83 -9 -83 -5 0 -12
55 -16 123 -13 219 -21 224 -26 16 -7 -246 -5 -243 -145 -316 -142 -75 -140
-75 -279 -7 -67 34 -124 69 -133 82 -12 19 -17 66 -22 212 -3 104 -9 192 -13
196 -4 4 -7 -10 -7 -31 0 -21 -5 -90 -12 -152 -13 -137 -33 -140 -31 -5 0 48
-1 77 -4 65 -2 -13 -9 -23 -14 -23 -13 0 -11 31 7 135 21 117 21 130 7 128 -6
-2 -31 4 -55 12 -38 13 -41 13 -24 0 11 -8 25 -15 32 -15 6 0 17 -7 24 -15 28
-34 -24 -25 -145 24 -123 50 -165 60 -165 42 0 -5 19 -12 43 -16 23 -4 91 -32
151 -62 l109 -54 -7 -54 c-10 -86 -24 -105 -51 -68 -16 21 -43 11 -55 -22 -15
-41 -27 -29 -33 33 -8 93 -63 177 -129 197 -13 4 -30 13 -38 20 -8 7 -27 15
-42 19 -44 10 -33 22 33 34 50 9 69 8 106 -4 48 -17 74 -11 29 6 -15 5 -32 10
-37 10 -21 0 -7 31 19 41 20 8 36 7 62 -2 71 -25 238 -3 270 37 7 7 16 14 21
14 5 0 10 -57 11 -127 2 -73 7 -128 13 -130 6 -2 9 28 6 82 -3 94 2 123 22
107 6 -5 33 -9 60 -9 42 0 47 2 41 20 -7 21 -6 21 55 -20 23 -16 48 -23 81
-23 55 0 85 19 131 86 29 43 32 44 49 29 14 -12 29 -15 68 -9z m-1088 -177
c44 -23 100 -44 126 -47 40 -4 49 -10 70 -43 13 -21 24 -45 24 -53 0 -38 -134
-21 -219 29 -58 34 -121 97 -121 122 0 9 25 31 38 33 1 0 38 -19 82 -41z
m1670 -2 c0 -22 -10 -39 -39 -66 -63 -58 -125 -85 -208 -89 -85 -5 -90 2 -43
66 25 35 36 42 64 42 21 0 66 17 117 44 46 24 89 42 96 39 7 -3 13 -19 13 -36z
m-195 14 c3 -5 -4 -12 -15 -16 -11 -3 -42 -24 -69 -45 -60 -47 -79 -93 -80
-192 -1 -27 -5 -48 -10 -48 -10 0 -14 10 -25 61 -8 36 -33 44 -55 18 -23 -28
-37 -10 -47 58 -6 51 -6 51 33 80 22 15 64 39 94 52 30 13 61 27 69 32 21 11
98 11 105 0z m592 -103 c17 -18 40 -51 52 -73 22 -42 28 -95 11 -95 -5 0 -10
3 -10 8 0 4 -16 31 -35 61 -19 29 -33 57 -29 62 3 5 -4 23 -16 39 -28 40 -12
38 27 -2z m-2561 -22 c-1 -19 -9 -43 -18 -53 -10 -10 -24 -35 -33 -56 -14 -34
-35 -50 -35 -27 0 35 63 170 79 170 4 0 7 -15 7 -34z m124 -49 c0 -8 -11 -19
-25 -25 -13 -6 -43 -41 -66 -77 -23 -36 -48 -65 -56 -65 -17 0 -17 0 6 53 27
62 87 127 117 127 13 0 24 -6 24 -13z m2380 -33 c36 -31 60 -74 60 -106 -1
-19 -5 -16 -21 17 -11 22 -39 57 -62 77 -49 44 -28 54 23 12z m-1638 -105 c-7
-62 -47 -120 -92 -134 l-25 -8 29 29 c36 36 66 96 66 129 0 17 5 25 13 22 7
-2 11 -17 9 -38z m860 -13 c16 -75 87 -136 158 -136 39 0 153 47 244 100 38
22 71 38 74 35 18 -17 -126 -104 -225 -137 -57 -19 -69 -20 -122 -8 -76 16
-123 54 -140 112 -7 24 -15 51 -18 62 -3 12 -1 17 8 14 7 -2 17 -21 21 -42z
m771 -13 c13 -27 34 -53 46 -59 34 -17 35 -23 16 -44 -28 -31 -39 -24 -60 38
-11 31 -22 59 -25 62 -11 8 -19 50 -10 50 4 0 19 -21 33 -47z m-2403 22 c0 -9
-11 -32 -25 -53 -13 -20 -27 -52 -31 -70 -8 -38 -18 -40 -40 -8 -18 29 -15 35
41 100 42 48 55 56 55 31z m250 7 c0 -4 -5 -13 -11 -19 -7 -7 -9 -86 -7 -239
3 -211 5 -233 25 -274 12 -25 25 -65 29 -90 8 -53 15 -40 33 60 25 143 137
307 239 352 80 36 138 20 367 -105 289 -156 274 -151 316 -119 29 22 158 95
296 168 95 50 106 54 171 54 83 0 188 -30 230 -65 33 -28 88 -141 108 -223 22
-92 15 -213 -21 -352 l-6 -25 21 28 c21 26 23 27 36 10 24 -32 15 -50 -67
-128 -74 -68 -83 -81 -91 -125 -5 -27 -31 -101 -58 -165 -48 -112 -56 -135
-45 -135 21 0 88 46 130 89 50 52 81 66 71 34 -3 -10 -15 -54 -26 -98 -27
-108 -91 -235 -161 -320 -32 -38 -136 -149 -231 -246 -214 -218 -222 -222
-418 -217 -167 4 -187 15 -351 178 -202 202 -309 324 -351 400 -28 52 -92 266
-83 280 3 5 29 -10 58 -33 29 -23 67 -53 85 -65 49 -36 45 -21 -48 184 -10 22
-23 67 -29 100 -9 50 -16 63 -48 89 -21 17 -61 54 -90 84 -51 52 -52 56 -38
77 17 26 19 55 6 70 -5 5 -18 34 -29 64 -11 30 -43 114 -72 185 -50 126 -52
132 -46 205 5 69 55 305 71 329 7 13 35 15 35 3z m1924 -44 c9 -29 21 -66 26
-83 5 -16 16 -70 25 -118 19 -102 16 -121 -40 -272 -21 -55 -52 -139 -69 -187
-17 -49 -35 -88 -39 -88 -12 0 3 149 20 195 36 98 42 150 44 376 2 126 6 229
10 229 4 0 15 -24 23 -52z m-1799 -27 c50 -24 119 -54 155 -68 l65 -24 -65 5
c-73 5 -180 55 -235 109 -35 35 -37 35 80 -22z m-490 -110 c3 -11 16 -21 28
-23 14 -2 24 -14 31 -36 11 -40 3 -49 -29 -32 -19 10 -30 11 -50 2 -30 -14
-31 -6 -14 64 12 47 24 56 34 25z m2635 -22 c16 -38 -1 -60 -51 -62 -45 -3
-50 25 -13 64 35 37 48 37 64 -2z m-216 -280 c25 -30 26 -34 26 -171 0 -198
-36 -377 -90 -446 -32 -40 -90 -72 -132 -72 -44 0 -47 10 -14 53 13 18 28 55
34 82 6 28 16 75 22 107 7 31 10 66 7 79 -3 12 0 34 8 49 8 15 17 51 20 81 10
80 36 219 46 246 12 32 42 29 73 -8z m-2146 -51 c6 -29 14 -77 18 -106 4 -29
11 -55 15 -58 15 -9 10 -37 -5 -31 -16 6 -15 -18 4 -113 5 -25 14 -78 20 -119
12 -81 18 -96 67 -160 18 -24 33 -48 33 -53 0 -23 -113 26 -146 64 -26 30 -69
129 -83 193 -6 28 -15 71 -21 97 -14 66 -12 234 4 288 14 47 50 77 71 60 7 -6
17 -33 23 -62z m-337 -418 c0 -96 -4 -155 -10 -155 -11 0 -72 49 -128 101 -37
35 -43 70 -15 101 31 35 134 114 144 111 6 -2 10 -63 9 -158z m99 -187 c0 -21
-37 -103 -64 -140 -27 -40 -54 -58 -43 -30 2 6 12 45 22 85 15 60 21 72 35 67
11 -3 20 1 24 10 5 15 26 21 26 8z m2601 -83 c13 -38 19 -73 15 -77 -11 -12
-46 36 -46 63 0 12 -8 28 -17 34 -17 9 -17 11 -1 20 10 7 15 17 11 27 -4 11
-2 14 5 9 6 -3 21 -38 33 -76z m-2526 -138 c-36 -34 -115 -74 -115 -59 0 8 10
19 23 26 12 6 36 20 52 30 40 26 67 28 40 3z m2435 -17 c54 -40 70 -65 41 -65
-26 0 -115 62 -119 83 -5 27 26 20 78 -18z m-2356 -83 c9 -15 -90 -104 -110
-100 -36 6 -21 38 31 66 28 15 52 30 53 35 5 10 20 9 26 -1z m2303 -29 c24 -9
45 -24 49 -35 8 -27 -18 -52 -44 -44 -23 8 -78 60 -94 90 -9 17 -7 18 18 12
16 -4 48 -14 71 -23z m-1859 -495 c49 -71 161 -171 272 -244 89 -59 116 -72
175 -82 87 -16 165 -41 165 -53 0 -12 -2 -12 -115 16 -105 26 -187 32 -229 16
-36 -14 -76 -78 -76 -124 0 -50 -50 -127 -123 -191 -32 -27 -55 -51 -53 -53 2
-2 55 23 118 56 63 34 126 61 139 61 36 0 132 -49 194 -100 43 -35 54 -50 50
-67 -3 -12 0 -23 6 -25 13 -4 8 -33 -57 -313 l-49 -210 0 -325 c0 -204 5 -365
13 -434 7 -59 11 -110 9 -113 -3 -2 -20 21 -38 53 -19 31 -43 70 -53 88 -155
255 -256 489 -315 726 -21 86 -73 386 -86 495 -4 33 -11 67 -16 76 -14 27 -57
199 -74 293 -28 162 -18 231 54 379 22 46 41 92 41 101 0 27 18 18 48 -26z
m1422 -45 c63 -132 71 -160 72 -249 0 -62 -12 -134 -51 -307 -28 -124 -51
-243 -51 -265 0 -42 -2 -56 -46 -267 -44 -213 -151 -518 -256 -730 -52 -105
-146 -255 -160 -255 -17 0 -7 40 12 50 24 13 25 26 4 47 -11 12 -14 27 -10 53
13 84 17 396 7 536 -13 172 -29 265 -76 454 -51 205 -50 196 -23 236 41 62
188 144 257 144 9 0 61 -23 115 -50 55 -28 101 -50 103 -50 2 0 -24 27 -56 59
-78 78 -119 146 -103 172 19 30 14 46 -25 87 -51 52 -120 70 -202 52 -87 -19
-184 -51 -202 -66 -18 -16 -49 -19 -49 -4 0 17 150 80 190 80 92 0 309 146
437 295 31 36 60 65 64 65 3 0 26 -39 49 -87z"/>
<path d="M4380 6233 c0 -54 -3 -109 -7 -122 -5 -19 -2 -22 13 -19 14 2 19 12
18 36 -2 161 -5 202 -14 202 -6 0 -10 -39 -10 -97z"/>
<path d="M3645 6220 c3 -5 13 -10 21 -10 8 0 12 5 9 10 -3 6 -13 10 -21 10 -8
0 -12 -4 -9 -10z"/>
<path d="M3911 6115 c-4 -36 -1 -247 6 -344 l6 -93 44 -32 c24 -17 80 -50 124
-74 l81 -42 76 38 c105 53 159 88 172 113 10 18 35 347 27 355 -1 1 -29 -10
-62 -26 -33 -16 -66 -30 -73 -30 -8 0 -42 -11 -77 -25 l-63 -26 -52 31 c-36
21 -58 28 -76 24 -16 -4 -24 -2 -24 6 0 7 -8 10 -20 7 -11 -3 -23 -1 -26 4 -9
15 -22 10 -29 -11 -13 -42 -24 -17 -28 63 -1 45 -4 73 -6 62z m177 -175 l82
-40 2 -127 2 -128 5 127 c3 69 8 128 11 130 14 10 82 27 133 33 46 5 57 4 57
-8 0 -16 -104 -101 -137 -111 -28 -9 -33 -24 -39 -121 -7 -114 -13 -145 -28
-145 -7 0 -37 14 -67 30 -30 17 -73 40 -95 51 -47 25 -74 64 -74 108 0 35 24
43 33 11 4 -15 14 -20 36 -20 32 0 39 -8 21 -26 -6 -6 10 -28 49 -62 33 -29
63 -52 68 -52 14 0 3 163 -13 187 -8 12 -14 30 -14 40 -1 16 -2 16 -16 -2 -15
-19 -16 -19 -29 -2 -7 11 -17 36 -20 58 -8 49 -16 53 -59 35 -24 -10 -38 -11
-42 -5 -8 13 27 79 42 79 6 0 48 -18 92 -40z"/>
<path d="M4170 5610 c0 -11 4 -20 9 -20 5 0 7 9 4 20 -3 11 -7 20 -9 20 -2 0
-4 -9 -4 -20z"/>
<path d="M4006 6061 c-4 -5 19 -22 51 -37 73 -36 166 -38 230 -6 53 27 68 48
27 38 -93 -24 -140 -27 -203 -15 -36 6 -74 16 -83 20 -10 5 -19 5 -22 0z"/>
<path d="M3290 6191 c0 -13 26 -32 33 -24 8 7 -11 33 -24 33 -5 0 -9 -4 -9 -9z"/>
<path d="M4595 5319 c-77 -11 -255 -79 -255 -97 0 -5 9 -17 19 -26 19 -17 23
-17 93 7 145 50 239 58 359 31 39 -9 73 -13 76 -10 6 6 -44 51 -72 64 -54 25
-74 31 -120 35 -27 2 -72 0 -100 -4z"/>
<path d="M3630 5299 c-51 -23 -110 -66 -110 -79 0 -6 9 -6 23 -1 12 5 54 14
93 20 88 15 191 3 311 -35 87 -28 113 -27 113 5 0 25 -8 29 -142 75 -128 43
-215 48 -288 15z"/>
<path d="M5360 6951 c0 -11 5 -23 10 -26 6 -4 10 5 10 19 0 14 -4 26 -10 26
-5 0 -10 -9 -10 -19z"/>
<path d="M5376 6895 c-10 -26 -7 -35 9 -35 17 0 19 18 6 38 -7 11 -10 10 -15
-3z"/>
</g>
</svg>
