<?xml version="1.0" standalone="no"?>
<!DOCTYPE svg PUBLIC "-//W3C//DTD SVG 20010904//EN"
 "http://www.w3.org/TR/2001/REC-SVG-20010904/DTD/svg10.dtd">
<svg version="1.0" xmlns="http://www.w3.org/2000/svg"
 width="794.000000pt" height="795.000000pt" viewBox="0 0 794.000000 795.000000"
 preserveAspectRatio="xMidYMid meet">

<g transform="translate(0.000000,795.000000) scale(0.100000,-0.100000)"
fill="#000000" stroke="none">
<path d="M0 3975 l0 -3975 3970 0 3970 0 0 3975 0 3975 -3970 0 -3970 0 0
-3975z m2915 1295 c341 -71 633 -243 789 -464 159 -225 236 -509 223 -829 -7
-173 -28 -299 -73 -437 -140 -422 -457 -719 -863 -810 -50 -11 -102 -20 -116
-20 -14 0 -25 -3 -25 -7 0 -14 -292 3 -374 21 -79 18 -161 45 -205 70 -21 11
-29 10 -75 -15 -136 -74 -358 -83 -481 -21 -129 65 -204 210 -192 372 13 175
107 325 289 461 42 31 74 60 70 64 -4 4 -2 5 3 3 6 -1 61 23 123 55 101 53
112 61 117 90 5 32 82 626 106 826 13 103 13 104 49 126 69 44 166 67 280 68
137 0 172 -7 165 -36 -3 -12 -52 -346 -110 -742 -104 -709 -124 -824 -164
-937 l-20 -57 57 -12 c71 -15 245 -6 327 16 273 73 473 305 560 649 91 360 37
736 -136 957 -126 160 -336 281 -556 319 -89 16 -301 8 -393 -15 -100 -25
-221 -87 -290 -152 -80 -74 -109 -131 -117 -232 -5 -70 -3 -84 20 -134 28 -61
79 -100 150 -112 23 -5 36 -12 34 -19 -3 -6 -10 -53 -17 -105 -9 -63 -18 -95
-28 -98 -21 -9 -138 14 -202 39 -202 79 -300 266 -261 494 40 226 176 392 426
517 125 62 297 113 445 131 87 11 367 -4 465 -24z m1634 10 c121 -20 171 -65
171 -157 0 -81 -98 -856 -116 -915 -7 -25 0 -23 53 18 108 82 208 114 358 114
209 0 357 -75 435 -222 52 -96 52 -166 1 -513 -62 -420 -65 -506 -16 -559 49
-53 142 -28 226 61 80 85 136 192 169 321 8 28 17 52 21 52 12 0 79 -82 109
-134 l28 -49 -25 -71 c-73 -205 -168 -340 -299 -426 -95 -62 -172 -83 -299
-83 -165 0 -251 42 -332 161 -47 70 -73 147 -73 220 0 27 18 211 39 408 26
236 37 373 32 399 -11 57 -36 100 -73 127 -28 20 -45 23 -119 23 -79 0 -89 -2
-129 -30 -55 -38 -114 -128 -140 -214 -12 -41 -43 -253 -80 -551 -34 -267 -63
-495 -66 -507 l-4 -23 -222 0 -221 0 6 53 c3 28 53 459 111 957 58 498 121
1041 140 1208 18 167 38 308 43 313 22 22 182 33 272 19z m1788 -2103 c54 -28
104 -82 128 -141 21 -50 19 -161 -4 -212 -77 -168 -310 -212 -442 -82 -49 48
-72 101 -77 175 -9 130 68 245 189 282 55 17 148 7 206 -22z"/>
<path d="M1996 3434 c-89 -59 -181 -151 -206 -206 -36 -80 -19 -178 36 -198
105 -40 196 60 228 250 22 133 29 200 20 200 -5 -1 -40 -21 -78 -46z"/>
</g>
</svg>
