<svg width="129" height="143" viewBox="0 0 129 143"  xmlns="http://www.w3.org/2000/svg" fill="none">
<path id="Vector" d="M78.2013 77.494C78.2013 99.2506 78.2013 120.885 78.2013 142.579C68.9984 142.579 59.8997 142.579 50.7951 142.579C50.7722 142.556 50.7412 142.529 50.7152 142.498C50.6903 142.468 50.6643 142.437 50.6504 142.401C50.6358 142.364 50.634 142.322 50.6285 142.282C50.623 142.242 50.6174 142.201 50.6161 142.161C50.6136 142.079 50.6138 141.998 50.6132 141.917C50.6128 141.876 50.613 141.835 50.613 141.795C50.6129 141.713 50.6129 141.632 50.6129 141.55C50.6129 141.469 50.6129 141.388 50.6129 141.306C50.6129 112.176 50.6129 83.0459 50.6129 53.9157C50.6129 53.8343 50.6129 53.7529 50.6129 53.6715C50.6129 53.6309 50.6128 53.5902 50.6128 53.5495C50.6128 53.5088 50.6129 53.4681 50.6126 53.4274C50.6123 53.3868 50.6127 53.346 50.6104 53.3054C50.6082 53.2651 50.6052 53.2245 50.5985 53.1847C50.5918 53.1447 50.5897 53.0986 50.5677 53.068C50.5477 53.04 50.5038 53.0292 50.462 53.0062C40.1498 63.3187 29.8356 73.6333 19.411 84.0581C12.757 77.6089 6.50274 70.9603 0.0552979 64.6527C21.574 43.134 43.0252 21.6828 64.3776 0.330444C85.731 21.6839 107.203 43.1555 128.723 64.6761C122.469 70.9937 116.067 77.4605 109.549 84.0444C99.1316 73.6275 88.7899 63.2858 78.4708 52.9667C78.3699 52.998 78.3306 53.0036 78.2986 53.0221C78.2675 53.0399 78.2205 53.0709 78.2205 53.0962C78.2118 61.1881 78.2066 69.2801 78.2013 77.494Z" fill="white"/>
</svg>
