<svg xmlns="http://www.w3.org/2000/svg" width="439" height="302" viewBox="0 0 439 302" fill="none">
  <path id="Vector" d="M151.129 301.407C127.572 301.407 104.136 301.409 80.7012 301.405C76.1521 301.405 71.658 300.848 67.192 300.021C61.0285 298.88 55.0836 297.027 49.3578 294.486C41.5862 291.038 34.5116 286.504 28.1367 280.863C21.9159 275.36 16.6351 269.077 12.319 261.99C8.41564 255.581 5.4279 248.763 3.40958 241.529C2.01368 236.526 1.03164 231.447 0.702868 226.256C0.579929 224.315 0.48575 222.369 0.465276 220.425C0.440618 218.083 0.390886 215.732 0.560293 213.4C0.927257 208.348 1.74202 203.359 3.03515 198.455C5.21299 190.196 8.59567 182.468 13.1693 175.25C16.9313 169.313 21.4157 163.979 26.5424 159.196C31.8799 154.215 37.8124 150.057 44.2907 146.67C48.9069 144.257 53.7121 142.326 58.6882 140.818C59.3658 140.613 59.6705 140.286 59.9112 139.659C62.9848 131.653 67.4128 124.464 73.2072 118.153C77.9868 112.948 83.4396 108.549 89.6093 105.059C95.9039 101.498 102.579 98.9639 109.672 97.5521C110.347 97.4177 110.578 97.1951 110.669 96.4823C111.459 90.29 112.692 84.1874 114.517 78.21C116.62 71.3244 119.359 64.7096 122.75 58.3546C126.453 51.4139 130.858 44.9605 135.952 38.9738C138.873 35.5405 141.998 32.3062 145.321 29.2523C150.116 24.8449 155.249 20.8905 160.741 17.3965C169.001 12.1408 177.808 8.07692 187.167 5.18681C193.375 3.26978 199.704 1.94636 206.14 1.13742C208.627 0.824872 211.139 0.683914 213.644 0.560197C216.116 0.438142 218.593 0.400852 221.068 0.389892C226.099 0.367615 231.096 0.855509 236.06 1.6198C240.704 2.33475 245.284 3.36354 249.798 4.68954C255.215 6.28108 260.477 8.27109 265.593 10.6593C273.538 14.3683 280.91 18.9898 287.77 24.4468C291.814 27.6643 295.604 31.1612 299.141 34.918C305.964 42.1659 311.771 50.1616 316.345 59.0165C317.85 61.9315 319.16 64.9475 320.557 67.918C320.711 68.2456 320.855 68.5782 320.985 68.8686C323.502 69.1417 325.954 69.3593 328.392 69.6816C335.488 70.6193 342.379 72.3889 349.072 74.9232C355.507 77.3598 361.614 80.447 367.379 84.2062C371.909 87.1604 376.153 90.4765 380.135 94.1426C385.022 98.6426 389.382 103.597 393.247 108.993C397.639 115.123 401.239 121.689 404.089 128.672C406.764 135.227 408.643 142.009 409.826 148.98C410.225 151.329 410.412 153.715 410.689 156.084C410.759 156.686 410.748 157.302 410.879 157.888C410.951 158.21 411.196 158.528 411.44 158.771C412.936 160.257 414.487 161.688 415.958 163.197C420.917 168.285 425.046 173.988 428.472 180.208C431.578 185.846 433.979 191.77 435.65 197.986C436.808 202.293 437.578 206.666 438.062 211.105C438.503 215.152 438.585 219.206 438.407 223.25C438.121 229.779 437.051 236.201 435.184 242.478C431.852 253.683 426.386 263.731 418.809 272.625C412.183 280.402 404.347 286.695 395.377 291.587C388.277 295.459 380.756 298.2 372.843 299.797C369.6 300.452 366.289 300.83 362.991 301.129C360.249 301.378 357.479 301.396 354.722 301.397C286.898 301.41 219.075 301.407 151.129 301.407ZM170.526 44.0305C165.134 48.0614 160.315 52.6963 156.062 57.907C148.726 66.894 143.508 76.9923 140.459 88.1851C138.664 94.7761 137.636 101.488 137.658 108.341C137.672 112.939 137.66 117.536 137.66 122.134C137.66 122.53 137.66 122.926 137.66 123.429C137.149 123.429 136.752 123.429 136.355 123.429C132.571 123.429 128.786 123.38 125.003 123.447C122.699 123.487 120.385 123.595 118.097 123.865C113.466 124.411 109.079 125.835 104.94 127.974C100.499 130.269 96.5879 133.257 93.2481 137.001C88.4721 142.355 85.3075 148.522 83.7118 155.506C83.0727 158.303 82.4322 161.1 81.7904 163.905C81.472 163.989 81.2049 164.078 80.9308 164.128C78.743 164.533 76.5613 164.977 74.3639 165.321C68.3456 166.262 62.6341 168.104 57.2256 170.92C51.3254 173.991 46.1476 177.991 41.732 182.949C38.0686 187.063 35.0794 191.632 32.7837 196.658C29.7985 203.193 28.2307 210.061 27.905 217.21C27.8056 219.392 27.9395 221.592 28.0982 223.774C28.4437 228.525 29.4892 233.135 31.0977 237.619C33.6691 244.787 37.5903 251.134 42.7953 256.673C47.6287 261.818 53.2603 265.879 59.6703 268.864C66.8326 272.2 74.3757 273.958 82.2503 273.961C171.236 273.996 260.223 273.985 349.209 273.976C352.538 273.976 355.867 273.872 359.197 273.821C362.616 273.768 365.969 273.216 369.275 272.398C379.959 269.753 389.051 264.395 396.555 256.33C398.999 253.703 401.151 250.864 403.036 247.82C407.801 240.123 410.401 231.724 411.087 222.721C411.335 219.477 411.225 216.222 410.828 213C409.948 205.847 407.808 199.079 404.239 192.795C401.166 187.385 397.345 182.563 392.599 178.531C390.035 176.353 387.331 174.339 384.655 172.296C384.042 171.828 383.821 171.348 383.814 170.577C383.777 166.354 383.824 162.122 383.54 157.913C383.336 154.9 382.792 151.89 382.16 148.929C381.005 143.512 379.046 138.367 376.518 133.431C372.643 125.864 367.53 119.252 361.209 113.589C356.501 109.371 351.29 105.884 345.603 103.093C336.241 98.5004 326.362 96.1555 315.941 96.0932C314.809 96.0864 313.677 96.1949 312.545 96.248C310.359 96.3505 308.173 96.454 305.986 96.5528C304.455 96.622 302.924 96.6843 301.361 96.751C300.506 93.8994 299.655 91.1543 298.861 88.3928C297.084 82.2145 294.805 76.2376 291.698 70.6C286.871 61.8386 280.677 54.1751 273.082 47.6557C265.11 40.8125 256.159 35.6591 246.246 32.1857C238.038 29.3098 229.572 27.8355 220.884 27.6545C217.681 27.5878 214.487 27.7942 211.294 28.1113C207.824 28.4561 204.4 29.0302 201.006 29.8103C196.572 30.8298 192.265 32.2404 188.066 33.9972C181.857 36.5951 176.055 39.8958 170.526 44.0305Z" fill="white"/>
</svg>
